# xmcd CD database file
#
# Track frame offsets:
#	150
#	18492
#	36175
#	55007
#	73587
#	85270
#	109117
#	125930
#	146612
#	158487
#	171070
#	189427
#	210632
#	221212
#
# Disc length: 3139 seconds
#
# Revision: 0
# Processed by: cddbd v1.5PL3 Copyright (c) Steve Scherf et al.
# Submitted via: CDex 1.50
#
DISCID=c90c410e
DTITLE=Marc Hirte - Cosmic Voices
DYEAR=1994
DGENRE=New Age
TTITLE0=Nightide (Time)
TTITLE1=Welcome
TTITLE2=Hip-Hopabilly
TTITLE3=A.A.F.L.Y.A.
TTITLE4=Stormy Weather
TTITLE5=The Ghost Ship And An Angel On The Eyeland
TTITLE6=Highland Expedition
TTITLE7=Invasion
TTITLE8=Sibila's Alibis
TTITLE9=The Cave
TTITLE10=Riders
TTITLE11=Woodstick
TTITLE12=Flashing Lights In Purple Clouds
TTITLE13=Rain
EXTD=YEAR: 1994
EXTT0=
EXTT1=
EXTT2=
EXTT3=
EXTT4=
EXTT5=
EXTT6=
EXTT7=
EXTT8=
EXTT9=
EXTT10=
EXTT11=
EXTT12=
EXTT13=
PLAYORDER=
